<svg clip-rule="evenodd" fill-rule="evenodd" stroke-linejoin="round" stroke-miterlimit="1.41421" viewBox="0 0 700 300" xmlns="http://www.w3.org/2000/svg" xmlns:xlink="http://www.w3.org/1999/xlink"><linearGradient id="a" gradientTransform="scale(1 -1)" gradientUnits="userSpaceOnUse" x1="0" x2="1" y1="0" y2="0"><stop offset="0" stop-color="#ffe73f"/><stop offset="1" stop-color="#ffcb05"/></linearGradient><linearGradient id="b" gradientTransform="matrix(-1 0 0 1 .500003 0)" gradientUnits="userSpaceOnUse" x1="0" x2="1" y1="0" y2="0"><stop offset="0" stop-color="#f4858e"/><stop offset=".13" stop-color="#f4858e"/><stop offset=".44" stop-color="#f37160"/><stop offset="1" stop-color="#f37160"/></linearGradient><linearGradient id="c" gradientTransform="matrix(1 0 0 -1 0 -.000001)" gradientUnits="userSpaceOnUse" x1="0" x2="1" y1="0" y2="0"><stop offset="0" stop-color="#1b75bc"/><stop offset="1" stop-color="#00a79d"/></linearGradient><linearGradient id="d" gradientTransform="matrix(.500226 -.865895 -.865895 -.500226 .244969 .424427)" gradientUnits="userSpaceOnUse" x1="0" x2="1" y1="0" y2="0"><stop offset="0" stop-color="#003552"/><stop offset="1" stop-color="#05423a"/></linearGradient><linearGradient id="e" gradientTransform="matrix(0 -1 -1 0 .379373 .379373)" gradientUnits="userSpaceOnUse" x1="0" x2="1" y1="0" y2="0"><stop offset="0" stop-color="#f68c3d"/><stop offset="1" stop-color="#f26522"/></linearGradient><g fill-rule="nonzero"><path d="m.3 0 .1.173h-.2l-.2-.346h.3z" fill="url(#a)" transform="matrix(411.258 0 0 -411.258 20.994 221.231)"/><path d="m.1-.087h.2l.1.174h-.2z" fill="url(#b)" transform="matrix(-411.258 0 0 411.258 350.002 114.384)"/><path d="m.6-.173h.2l.2.346h-.8l-.1-.173h.6z" fill="url(#c)" transform="matrix(411.258 0 0 -411.258 267.748 78.768)"/><path d="m.572-.424h.326l-.49.848h-.326z" fill="url(#d)" transform="matrix(126.049 -218.193 -218.193 -126.049 349.905 221.334)"/><path d="m-.024-.699h.807v.932l-.807.466z" fill="url(#e)" transform="matrix(0 -88.2055 -88.2055 0 206.06 219.079)"/></g></svg>