<svg clip-rule="evenodd" fill-rule="evenodd" stroke-linecap="round" stroke-linejoin="round" stroke-miterlimit="10" viewBox="0 0 1029 472" xmlns="http://www.w3.org/2000/svg"><path d="m0 0 41.127-71.231h-82.251l-82.254 142.462h123.378z" fill="none" stroke="#fff" stroke-width="7" transform="translate(126.878 254.123)"/><path d="m-123.376-71.231h82.25l41.126 71.231h-82.249z" fill="none" stroke="#fff" stroke-width="7" transform="matrix(-1 0 0 1 168.006 182.891)"/><path d="m0 142.463h82.228l82.297-142.463h-329.004l-41.126 71.232h246.754z" fill="none" stroke="#fff" stroke-width="7" transform="translate(496.987 40.428)"/><path d="m-82.213-71.207h82.262l-123.43 213.664-82.251-.019z" fill="none" stroke="#fff" stroke-width="7" transform="matrix(.500217 -.8659 -.8659 -.500217 476.453 76.084)"/><path d="m-97.304-26.072h71.232v82.25l-71.232 41.126z" fill="none" stroke="#fff" stroke-width="7" transform="matrix(0 -1 -1 0 224.182 156.819)"/><g fill="#fff" fill-rule="nonzero"><path d="m0-18.887c9.62-5.654 15.852-15.274 15.852-26.6 0-20.392-18.687-36.619-42.091-36.619-21.321 0-41.706 14.722-42.082 36.619l22.835.37c.377-8.868 9.436-15.091 19.247-15.091 11.326 0 20.577 7.361 20.577 16.98 0 10.757-7.737 18.871-18.118 18.871h-10.004l.184 18.87h11.142c12.831 0 22.458 10.004 22.458 23.036 0 14.337-10.572 23.588-23.404 23.588-12.454 0-23.027-7.745-24.156-19.439l-23.404.369c0 22.85 21.706 41.152 47.56 41.152 26.232 0 46.801-19.254 46.801-45.486 0-16.227-9.436-29.443-23.397-36.62" transform="translate(237.085 407.789)"/><path d="m0 141.545h24.533v-60.008h57.557v-21.513h-57.557v-38.695h65.487v-21.329h-90.02z" transform="translate(282.625 327.572)"/><path d="m0 61.514c-16.419 0-27.176-13.584-27.176-30.765 0-17.165 10.757-30.949 27.176-30.949 16.228 0 27.177 13.784 27.177 30.949 0 17.181-10.949 30.765-27.177 30.765m0-84.165c-30.765 0-52.471 23.404-52.471 53.4 0 29.828 21.706 53.416 52.471 53.416 30.757 0 52.647-23.588 52.647-53.416 0-29.996-21.89-53.4-52.647-53.4" transform="translate(429.318 386.274)"/><path d="m0 43.98-18.117-73.792h-22.451l-18.502 73.592-18.871-73.592h-29.251l32.846 103.604h29.059l14.906-54.921 15.107 54.921h29.243l32.654-103.604h-28.874z" transform="translate(674.37 395.326)"/><path d="m0 61.514c-16.429 0-27.186-13.584-27.186-30.765 0-17.165 10.757-30.949 27.186-30.949 16.227 0 27.168 13.784 27.168 30.949 0 17.181-10.941 30.765-27.168 30.765m39.235-66.978c-9.377-10.559-23.006-17.187-39.235-17.187-30.766 0-52.464 23.404-52.464 53.4 0 29.828 21.698 53.416 52.464 53.416 16.229 0 29.858-6.677 39.235-17.26v15.938h21.019v-103.804h-21.019z" transform="translate(778.46 386.274)"/><path d="m0-104.542c-23.404-.384-34.913 8.867-38.51 16.797l-1.69-15.675h-23.972v103.804h25.862v-48.697c0-25.28 14.336-34.146 38.31-33.778z" transform="translate(924.79 468.734)"/><path d="m0 59.286c-3.779 11.694-13.399 19.992-25.479 19.992-16.411 0-26.983-13.585-26.983-30.564 0-17.365 10.572-30.949 26.983-30.949 12.08 0 21.7 8.482 25.479 20.192zm0-100.792v49.835c-7.544-8.129-17.733-13.215-30.195-13.215-28.306 0-47.745 23.588-47.745 53.6 0 29.811 19.439 52.078 47.559 52.078 13.017 0 23.774-4.333 31.519-13.2l2.075 12.262 22.266-.184v-141.176z" transform="translate(1002.58 369.263)"/><path d="m0-71.579-1.698-15.675h-23.973v103.804h25.855v-48.697c0-25.258 14.326-34.129 38.254-33.776l-7.041-22.206c-18.626 1.398-28.203 9.477-31.397 16.55" transform="translate(521.858 452.568)"/></g></svg>