<svg clip-rule="evenodd" fill-rule="evenodd" stroke-linejoin="round" stroke-miterlimit="1.41421" viewBox="0 0 600 600" xmlns="http://www.w3.org/2000/svg"><g fill="#d2d2d2"><path d="m0 192c0 61.76-50.24 112-112 112h-192c-61.76 0-112-50.24-112-112v-192c0-61.76 50.24-112 112-112h192c61.76 0 112 50.24 112 112zm-112-352h-192c-88.352 0-160 71.648-160 160v192c0 88.352 71.648 160 160 160h192c88.352 0 160-71.648 160-160v-192c0-88.352-71.648-160-160-160" fill-rule="nonzero" transform="translate(508 203.9998)"/><path d="m0 160c-44.096 0-80-35.904-80-80 0-44.128 35.904-80 80-80s80 35.872 80 80c0 44.096-35.904 80-80 80m0-208c-70.688 0-128 57.312-128 128 0 70.687 57.312 128 128 128s128-57.313 128-128c0-70.688-57.312-128-128-128" fill-rule="nonzero" transform="translate(300 219.9998)"/><ellipse cx="437.6" cy="162.3998" rx="17.057" ry="17.056"/></g></svg>