<svg clip-rule="evenodd" fill-rule="evenodd" stroke-linejoin="round" stroke-miterlimit="1.41421" viewBox="0 0 600 600" xmlns="http://www.w3.org/2000/svg"><path d="m0 344.622h-76.713v-123.482c0-31.023-11.099-52.197-38.865-52.197-21.192 0-33.818 14.277-39.361 28.064-2.028 4.923-2.529 11.819-2.529 18.716v128.899h-76.719s1.008-209.164 0-230.818h76.719v32.705c10.19-15.728 28.414-38.121 69.143-38.121 50.479 0 88.325 32.99 88.325 103.886zm-314.994-262.321h-.501c-25.746 0-42.394-17.739-42.394-39.886 0-22.642 17.155-39.881 43.402-39.881 26.24 0 42.395 17.239 42.896 39.881 0 22.147-16.656 39.886-43.403 39.886m38.353 262.321h-76.712v-230.818h76.712zm316.435-427.892h-432.868c-20.73 0-37.532 16.392-37.532 36.622v437.919c0 20.225 16.802 36.621 37.532 36.621h432.868c20.73 0 37.539-16.396 37.539-36.621v-437.919c0-20.23-16.809-36.622-37.539-36.622" fill="#d2d2d2" fill-rule="nonzero" transform="translate(476.637 127.689)"/></svg>